<?xml version="1.0" encoding="UTF-8" standalone="no"?>
<svg
   xmlns:dc="http://purl.org/dc/elements/1.1/"
   xmlns:cc="http://creativecommons.org/ns#"
   xmlns:rdf="http://www.w3.org/1999/02/22-rdf-syntax-ns#"
   xmlns:svg="http://www.w3.org/2000/svg"
   xmlns="http://www.w3.org/2000/svg"
   xmlns:sodipodi="http://sodipodi.sourceforge.net/DTD/sodipodi-0.dtd"
   xmlns:inkscape="http://www.inkscape.org/namespaces/inkscape"
   preserveAspectRatio="xMinYMin meet"
   focusable="false"
   version="1.1"
   id="svg52"
   sodipodi:docname="linkedIn-logo.svg"
   width="20"
   height="20"
   inkscape:version="1.0.1 (3bc2e813f5, 2020-09-07)">
  <metadata
     id="metadata58">
    <rdf:RDF>
      <cc:Work
         rdf:about="">
        <dc:format>image/svg+xml</dc:format>
        <dc:type
           rdf:resource="http://purl.org/dc/dcmitype/StillImage" />
        <dc:title></dc:title>
      </cc:Work>
    </rdf:RDF>
  </metadata>
  <defs
     id="defs56">
    <defs
       id="defs2" />
  </defs>
  <sodipodi:namedview
     pagecolor="#ffffff"
     bordercolor="#666666"
     borderopacity="1"
     objecttolerance="10"
     gridtolerance="10"
     guidetolerance="10"
     inkscape:pageopacity="0"
     inkscape:pageshadow="2"
     inkscape:window-width="1920"
     inkscape:window-height="1001"
     id="namedview54"
     showgrid="false"
     inkscape:zoom="15.65063"
     inkscape:cx="16.981433"
     inkscape:cy="17.286083"
     inkscape:window-x="1271"
     inkscape:window-y="-9"
     inkscape:window-maximized="1"
     inkscape:current-layer="svg52" />
  <g
     class="inbug"
     stroke="none"
     stroke-width="1"
     fill="none"
     fill-rule="evenodd"
     id="g30"
     style="fill-opacity:1"
     transform="matrix(0.41666667,0,0,0.41666667,-59.583542,-8e-8)">
    <path
       d="M 44.5235,0 H 3.6185 C 1.6625,0 5e-4,1.547 5e-4,3.454 v 41.091 c 0,1.907 1.662,3.455 3.618,3.455 h 40.905 c 1.959,0 3.477,-1.548 3.477,-3.455 V 3.454 C 48.0005,1.547 46.4825,0 44.5235,0"
       class="bug-text-color"
       fill="#ffffff"
       transform="translate(143)"
       id="path26" />
    <path
       d="m 187.5235,0 h -40.905 c -1.956,0 -3.618,1.547 -3.618,3.454 v 41.091 c 0,1.907 1.662,3.455 3.618,3.455 h 40.905 c 1.959,0 3.477,-1.548 3.477,-3.455 V 3.454 C 191.0005,1.547 189.4825,0 187.5235,0 Z M 162,18 h 6.5 v 3.266 c 0.937,-1.878 3.338,-3.566 6.945,-3.566 6.914,0 8.555,3.738 8.555,10.597 V 41 h -7 V 29.859 c 0,-3.906 -0.937,-6.109 -3.32,-6.109 -3.305,0 -4.68,2.375 -4.68,6.109 V 41 h -7 z m -12,23 h 7 V 18 h -7 z m 8,-30.5 c 0,2.485 -2.015,4.5 -4.5,4.5 -2.485,0 -4.5,-2.015 -4.5,-4.5 0,-2.485 2.015,-4.5 4.5,-4.5 2.485,0 4.5,2.015 4.5,4.5 z"
       class="background"
       fill="#0073b0"
       id="path28" />
  </g>
</svg>
